<svg width="58" height="55" viewBox="0 0 58 55" fill="none" xmlns="http://www.w3.org/2000/svg">
<g clip-path="url(#clip0_1_7918)">
<path d="M49.8207 23.0506C49.833 22.6804 49.7057 22.3182 49.4616 22.029C49.3523 21.8967 49.212 21.7904 49.0517 21.7186C48.8915 21.6467 48.7158 21.6114 48.5386 21.6153C47.4119 21.6153 46.1629 22.4009 44.7915 23.9722C43.4202 25.5434 42.5135 27.2113 42.0714 28.9757C44.0708 28.6044 45.9345 27.7476 47.4802 26.4889C49.0416 25.2293 49.8218 24.0832 49.8207 23.0506Z" fill="#246AA3"/>
<path d="M50.1247 0H7.8753C5.78664 0 3.78353 0.7868 2.30662 2.18731C0.829717 3.58783 0 5.48733 0 7.46796L0 47.532C0 49.5127 0.829717 51.4122 2.30662 52.8127C3.78353 54.2132 5.78664 55 7.8753 55H50.1247C52.2134 55 54.2165 54.2132 55.6934 52.8127C57.1703 51.4122 58 49.5127 58 47.532V7.46796C58 5.48733 57.1703 3.58783 55.6934 2.18731C54.2165 0.7868 52.2134 0 50.1247 0ZM30.2994 36.8633C29.7807 37.7226 29.3407 38.1523 28.9795 38.1523C27.7741 38.1523 26.7865 37.9407 26.0168 37.5175C25.2472 37.0943 24.5027 36.3052 23.7834 35.1502C23.0641 33.9971 22.4131 32.5424 21.8303 30.7859C21.2476 29.0294 20.901 27.7649 20.7908 26.9922C20.6616 27.1913 19.6777 29.133 17.8391 32.8172C17.6816 33.1368 17.5934 33.3146 17.5682 33.3519C15.3631 37.5618 13.6668 39.6673 12.4792 39.6683C10.6143 39.6683 8.98309 37.4737 7.58549 33.0845C6.18788 28.6954 5.48593 25.0356 5.47963 22.1052C5.47963 21.0507 5.74214 20.1978 6.26716 19.5466C6.79218 18.8954 7.53824 18.5718 8.50532 18.5758C9.1133 18.5758 9.65354 18.8247 10.1261 19.3226C10.5986 19.8205 10.8348 20.2964 10.8348 20.7505L10.6647 23.1805C10.6143 23.9174 10.5886 24.6537 10.5876 25.3896C10.5876 26.692 10.8726 28.4201 11.4428 30.5738C12.013 32.7276 12.4141 33.8049 12.6462 33.8059C12.8142 33.8059 13.4678 32.7106 14.6071 30.52C16.0971 27.6603 17.3015 25.4996 18.2203 24.0379H18.2014C19.494 21.7049 20.6396 20.1764 21.6382 19.4525C22.4782 19.5392 23.155 19.7786 23.6684 20.1709C24.1819 20.5633 24.4376 21.0238 24.4355 21.5525C24.4427 21.8602 24.4232 22.1679 24.3772 22.4726C24.3279 22.6593 24.3015 22.8507 24.2984 23.0431C24.2984 26.7512 25.3795 30.0869 27.5415 33.0502C27.6848 33.1846 27.8108 33.1054 27.9211 32.8097C28.0313 32.514 28.2991 31.6074 28.7275 30.0839C29.5171 27.261 30.4097 24.8026 31.4051 22.7086C32.4006 20.6145 33.217 19.3181 33.8543 18.8193C34.4537 18.3314 35.2192 18.066 36.009 18.0725C36.4921 18.0868 36.9519 18.2727 37.2973 18.5933C37.6427 18.9139 37.8485 19.3458 37.8739 19.8035C37.8739 20.3193 37.7573 20.7246 37.5242 21.0193C35.8547 23.1312 34.3725 26.0532 33.0778 29.7852C31.7443 33.6446 30.8181 36.004 30.2994 36.8633ZM51.7045 36.817C49.4395 38.5914 46.8827 39.4786 44.0339 39.4786C41.8467 39.4786 40.1246 38.8249 38.8677 37.5175C37.6109 36.2101 36.9808 34.3899 36.9777 32.0569C36.9777 28.6187 38.2593 25.3955 40.8224 22.3874C43.3855 19.3793 46.1241 17.8758 49.0379 17.8768C50.487 17.8768 51.652 18.3124 52.533 19.1837C52.962 19.5926 53.301 20.0784 53.53 20.6128C53.7591 21.1472 53.8736 21.7195 53.867 22.2963C53.867 24.4322 52.786 26.4669 50.624 28.4006C48.462 30.3343 45.6888 31.6711 42.3045 32.4109C41.9171 32.4976 41.7233 32.7186 41.7233 33.0741C41.7233 33.6646 41.9979 34.2261 42.5471 34.7589C43.0963 35.2916 43.8313 35.5589 44.7522 35.5609C47.3542 35.5609 49.9373 34.2899 52.5015 31.7478C52.9929 31.2579 53.4717 31.0124 53.9379 31.0114C54.715 31.0114 55.1035 31.4227 55.1035 32.2451C55.1035 33.5197 53.9705 35.0436 51.7045 36.817Z" fill="#246AA3"/>
</g>
<defs>
<clipPath id="clip0_1_7918">
<rect width="58" height="55" fill="white"/>
</clipPath>
</defs>
</svg>
